<svg xmlns="http://www.w3.org/2000/svg" xml:space="preserve" viewBox="0 0 400 400"><path d="M216 401H1.034V1.096H400.84V401zM41.665 231.83c4.196 9.932 9.459 19.24 18.11 25.92 3.742 2.89 6.132 6.296 8.17 10.383 9.027 18.111 21.21 33.839 36.666 46.913 30.212 25.557 65.24 37.211 104.692 35.627 3.353-.135 5.537.745 7.647 3.384 4.453 5.568 9.994 10.017 15.705 14.45 2.903-2.763 3.74-6.104 4.806-9.12 1.32-3.728 3.57-6.254 6.875-8.133 9.813-5.582 20.188-9.457 31.52-10.411 5.919-.5 6.48-.96 4.72-6.707-1.115-3.645-.37-5.792 2.82-7.883 4.863-3.188 9.405-6.867 14.072-10.355 1.323-.989 2.586-2.477 4.41-1.687 9.285 4.021 16.1-.54 22.383-6.495 2.887-2.738 5.647-3.388 9.454-1.979 6.648 2.462 12.662 1.342 17.81-3.998 4.136-4.29 9.385-6.744 15.2-8.134 5.874-1.405 11.84-1.759 17.82-2.202 2.244-.166 5.128-.246 4.819-3.677-.749-8.31-1.963-16.554-5.913-24.069-2.848-5.42-7.078-8.634-13.609-8.323-2.872.136-5.906.817-8.555-.383-.84-2.564.452-4.285 1.114-6.113 4.954-13.694 10.13-27.244 2.62-41.878-1.833-3.57-3.507-5.158-7.47-4.665-6.695.834-6.556.699-6.834-6.278-.764-19.131-4.704-37.59-12.713-55.024-18.104-39.412-47.714-66.48-88.582-80.818-25.162-8.827-51.096-10.206-77.26-5.039-20.69 4.087-39.711 12.263-56.829 24.637-2.553 1.845-4.278 1.591-6.566-.262-3.517-2.85-7.747-3.928-12.213-3.308-6.253.867-12.493 1.856-18.477 4.048-14.945 5.476-28.79 13.018-41.894 22.002-12.244 8.394-14.361 16.319-6.874 29.296 7.177 12.44 17.674 18.976 31.328 7.244 1.366-1.175 2.732-3.071 5.082-2.247.17.394.449.721.399.987-.152.804-.35 1.618-.672 2.367-5.387 12.591-9.583 25.534-11.449 39.146-.467 3.41-2.108 5.677-5.134 7.351-6.05 3.348-9.414 8.638-10.765 15.427-2.02 10.15-.442 19.825 3.567 30.006"/><path d="M74.976 128.963c-5.803-10.271-3.288-11.057-14.711-3.767-3.079 1.964-5.85 4.407-8.822 6.547-1.064.765-2.36 1.902-3.46 1.809-5.673-.481-7.788-5.11-9.88-9.408-1.629-3.349-3.746-6.813.696-10.133 10.73-8.019 22.335-14.46 34.442-20.094 6.223-2.895 12.763-4.782 19.381-6.433 7.009-1.75 11.109.251 14.2 6.75 2.032 4.275 2.77 11.51 1.446 15.833-3.977-.493-8.04-1.369-12.19-.698-5.548.897-6.625 2.678-3.882 7.63 10.976 19.817 21.255 39.959 28.9 61.34 5.133 14.355 8.895 28.799 6.242 44.382-3.276 19.24-21.752 35.26-41.238 34.449-9.973-.415-18.17-5.183-24.425-12.886-8.995-11.075-14.502-23.43-13.105-38.154.261-2.758.764-5.5 2.687-7.345 5.041-4.834 11.034-8.237 17.267-10.965 1.425 1.725.978 3.1.707 4.335-2.58 11.794.434 22.743 5.02 33.436 1.321 3.081 3.313 5.807 5.696 8.153 4.932 4.856 10.734 7.563 17.662 5.22 6.92-2.343 9.328-8.404 9.994-14.88 1.216-11.822-1.94-23.124-5.449-34.245-6.69-21.2-16.562-41.01-27.178-60.876M66.14 230.701c1.023.637.525 2.772 2.445 2.559 1.446-1.227 1.473-3.028 1.68-4.562.459-3.41-.555-6.464-4.325-7.186-3.183-.61-5.68 1.263-6.274 4.295-.966 4.937 3.488 3.533 6.474 4.894m-6.917-19.037c.925-.359 1.913-.609 2.764-1.096 2.47-1.413 3.363-3.628 2.678-6.338-.491-1.946-2.08-2.514-3.896-2.215-3.305.544-5.42 2.692-6.103 5.792-.598 2.716 1.268 3.856 4.557 3.857M188.299 221.114a270 270 0 0 1 32.691-11.832c4.687-1.367 7.332-.228 8.608 4.431.349 1.273 1 2.465 1.537 3.683 1.64 3.725.531 5.922-3.46 7.04-12.062 3.38-11.948 3.402-7.273 15.12 8.565 21.47 15.789 43.42 23.056 65.352a158 158 0 0 0 1.799 5.18c3.048 8.228 3.053 8.277 11.74 8.463 3.328.072 6.238.726 8.245 3.696 3.755 5.554 2.963 7.956-3.421 9.728-12.288 3.411-23.756 8.432-33.559 17.289-4.448-3.73-6.788-8.41-8.463-13.486-.666-2.02.219-3.565 1.992-4.625 1.428-.855 2.788-1.885 4.314-2.502 3.99-1.614 4.888-4.137 3.602-8.268-6.87-22.062-13.956-44.045-22.671-65.463-2.068-5.081-4.427-10.042-6.542-15.105-1.342-3.21-3.138-4.17-5.992-1.676-.124.11-.262.243-.413.276-3.101.665-4.934 8.296-9.314 1.824-5.535-8.178-5.156-13.693 1.007-17.742.693-.456 1.452-.813 2.517-1.383M259.236 145.634c3.423-2.758 4.568-.241 4.887 2.08 1.905 13.881-2.466 27.669-15.652 34.293-13.006 6.534-27.207 3.786-36.284-7.974-12.961-16.794-17.129-42.201-5.717-62.481 3.486-6.195 8.42-11.074 14.94-14.257 8.672-4.233 18.12-2.112 24.01 5.555 12.39 16.126 3.846 46.386-14.988 53.504-2.043.772-5.464-.223-5.965 2.585-.577 3.227 2.33 5.39 4.417 7.405 6.88 6.64 19.335 3.67 25.12-5.867 2.71-4.466 4.338-9.329 5.232-14.843m-38.766-.231c13.556-4.864 19.76-24.07 11.553-35.765-2.75-3.918-4.976-3.932-7.476.271-4.069 6.838-6.327 14.295-6.215 22.275.06 4.341-1.406 8.93 2.138 13.219M154.944 203.16c-12.241-8.891-16.837-21.71-19.01-35.399-1.695-10.685.131-21.279 4.864-31.152 3.257-6.796 4.967-7.66 12.196-6.646 1.402.196 2.245-.327 2.98-1.29 4.599-6.043 9.966-6.03 17.675-1.11 14.136 9.02 21.16 22.869 24.416 38.617 1.889 9.135 1.68 18.461-3.2 27.18-8.874 15.853-24.314 19.873-39.92 9.8m13.14-9.69c7.16 3.44 10.67 2.14 13.574-5.081.43-1.07.81-2.193.994-3.327 2.49-15.41-2.52-28.817-11.424-40.988-4.738-6.477-8.725-5.762-11.636 1.725-.708 1.823-.914 3.844-1.319 5.781-.229 1.097-.054 2.425-1.515 2.6-2.115.005-1.909-2.874-3.907-2.827-3.095 8.2 4.112 34.661 15.232 42.118M314.28 287.633c2.05 2.848 3.92 5.376 5.873 8.019-2.04 3.516-5.24 5.633-8.41 7.688-3.419 2.215-5.882.438-8.107-2.284-4.719-5.77-5.769-12.99-7.898-19.764-2.092-6.656-3.81-13.43-5.757-20.132-.62-2.137-1.637-4.52-4.213-4.154-2.424.345-2.242 2.925-2.432 4.886-1.337 13.82-.63 27.541 1.994 41.169.767 3.978-2.46 8.85-7.203 10.684-4.318 1.67-7.129-.761-9.158-4.004-4-6.397-5.786-13.775-8.586-20.704-3.302-8.175-6.157-16.531-9.462-24.705-1.241-3.071-1.084-5.361 1.603-7.426 2.24-1.72 4.253-3.749 6.565-5.357 4.371-3.04 6.46-2.349 7.939 2.823 1.998 6.99 3.463 14.136 6.32 21.67.72-8.462 1.152-16.19 2.113-23.85.563-4.481.648-9.691 6.554-11.15 6.29-1.553 14.929 1.474 18.39 6.303 3.89 5.428 4.856 11.98 6.789 18.122 2.292 7.284 3.709 14.843 7.086 22.166M352.951 241.743c-3.975 11.486-7.955 22.563-10.224 35.37 7.314-6.903 15.288-9.406 23.894-10.31 5.226-.55 11.309 6.906 9.89 12.037-.472 1.71-1.898 1.749-3.14 1.947-11.543 1.847-22.25 5.37-31.057 13.647-3.1 2.912-6.684.429-9.726-1.125-2.717-1.388-3.93-3.702-3.55-7.025 1.161-10.146 4.206-19.83 6.915-29.596 1.866-6.73 3.895-13.414 5.82-20.128.556-1.937.87-3.9-.663-6.413-9.566 1.653-18.364 5.231-24.25 13.47-2.947 4.125-4.46 2.705-6.572-.088-5.148-6.806-4.495-10.968 2.518-15.658 11.785-7.881 25.293-10.739 38.91-13.306 2.932-.552 4.227.804 5.256 3.257 1.878 4.48 1.086 8.82-.332 13.163-1.136 3.48-2.36 6.929-3.689 10.758"/></svg>